<svg xmlns="http://www.w3.org/2000/svg" viewBox="0 0 24 24" role="img" aria-label="GitHub logo">
  <title>GitHub</title>
  <path fill="#ffffff" d="M12 .297C5.373.297 0 5.67 0 12.297c0 5.292 3.438 9.787 8.205 11.387.6.111.82-.261.82-.58 0-.286-.01-1.04-.015-2.04-3.338.726-4.042-1.61-4.042-1.61-.546-1.387-1.333-1.756-1.333-1.756-1.09-.745.083-.73.083-.73 1.205.085 1.84 1.237 1.84 1.237 1.07 1.835 2.809 1.305 3.495.998.108-.775.418-1.305.762-1.605-2.665-.305-5.467-1.332-5.467-5.93 0-1.31.47-2.38 1.236-3.22-.123-.303-.536-1.527.117-3.176 0 0 1.008-.322 3.301 1.23.957-.266 1.984-.399 3.005-.404 1.02.005 2.047.138 3.006.404 2.291-1.552 3.297-1.23 3.297-1.23.655 1.649.242 2.873.119 3.176.77.84 1.235 1.91 1.235 3.22 0 4.61-2.807 5.624-5.479 5.92.43.372.823 1.102.823 2.222 0 1.605-.015 2.896-.015 3.286 0 .322.216.697.825.578C20.565 22.08 24 17.585 24 12.297 24 5.67 18.627.297 12 .297z"/>
</svg>
