<svg xmlns="http://www.w3.org/2000/svg" viewBox="0 0 24 24" role="img" aria-label="LinkedIn logo">
  <title>LinkedIn</title>
  <path fill="#ffffff" d="M20.447 20.452h-3.554v-5.569c0-1.328-.025-3.037-1.852-3.037-1.853 0-2.135 1.445-2.135 2.939v5.667H9.354V9h3.414v1.561h.049c.476-.9 1.637-1.852 3.369-1.852 3.603 0 4.268 2.37 4.268 5.456v6.287zM5.337 7.433c-1.144 0-2.067-.927-2.067-2.067 0-1.141.923-2.066 2.067-2.066 1.141 0 2.066.925 2.066 2.066 0 1.14-.925 2.067-2.066 2.067zM6.64 20.452H3.332V9h3.309v11.452z"/>
</svg>
